<?xml version="1.0" encoding="UTF-8"?>
<!DOCTYPE svg PUBLIC "-//W3C//DTD SVG 1.1//EN" "http://www.w3.org/Graphics/SVG/1.1/DTD/svg11.dtd">
<!-- Creator: CorelDRAW -->
<svg xmlns="http://www.w3.org/2000/svg" xml:space="preserve" width="24.9872mm" height="24.9872mm" version="1.1" style="shape-rendering:geometricPrecision; text-rendering:geometricPrecision; image-rendering:optimizeQuality; fill-rule:evenodd; clip-rule:evenodd"
viewBox="0 0 210.99 210.99"
 xmlns:xlink="http://www.w3.org/1999/xlink"
 xmlns:xodm="http://www.corel.com/coreldraw/odm/2003">
 <defs>
  <style type="text/css">
   <![CDATA[
    .fil0 {fill:#FEFEFE}
    .fil1 {fill:#39AE41}
   ]]>
  </style>
 </defs>
 <g id="Layer_x0020_1">
  <metadata id="CorelCorpID_0Corel-Layer"/>
  <circle class="fil0" cx="105.49" cy="105.49" r="105.49"/>
  <path class="fil1" d="M117.74 111.49c-1.94,0.79 -3.18,3.83 -4.44,5.38 -0.65,0.8 -1.41,0.92 -2.4,0.52 -7.28,-2.9 -12.87,-7.76 -16.89,-14.47 -0.68,-1.04 -0.56,-1.86 0.26,-2.83 1.21,-1.43 2.74,-3.05 3.07,-4.98 0.73,-4.26 -4.84,-17.48 -12.2,-11.49 -21.17,17.25 35.32,63.01 45.51,38.26 2.88,-7.02 -9.7,-11.72 -12.91,-10.4l0 0zm-12.24 36.32c-7.49,0 -14.86,-1.99 -21.31,-5.76 -1.04,-0.61 -2.29,-0.77 -3.45,-0.45l-14.02 3.85 4.88 -10.76c0.66,-1.46 0.49,-3.17 -0.44,-4.47 -5.22,-7.24 -7.98,-15.79 -7.98,-24.72 0,-23.33 18.98,-42.31 42.31,-42.31 23.33,0 42.31,18.98 42.31,42.31 0,23.33 -18.98,42.31 -42.31,42.31l0 0zm0 -93.58c-28.27,0 -51.27,23 -51.27,51.27 0,9.95 2.82,19.5 8.19,27.78l-7.79 17.15c-0.72,1.58 -0.46,3.44 0.67,4.76 0.87,1.01 2.12,1.57 3.41,1.57 2.89,0 18.63,-4.95 22.64,-6.05 7.41,3.96 15.72,6.05 24.15,6.05 28.27,0 51.27,-23 51.27,-51.27 0,-28.27 -23,-51.27 -51.27,-51.27l0 0z"/>
 </g>
</svg>
